# xmcd
#
# Track frame offsets:
#	150
#	20534
#	37517
#	57344
#	72913
#	92246
#	108553
#	124585
#	141129
#	160593
#	178653
#	208680
#
# Disc length: 3022 seconds
#
# Revision: 1
# Processed by: cddbd v1.5.2PL0 Copyright (c) Steve Scherf et al.
# Submitted via: audiograbber 1.83.01
#
DISCID=9e0bcc0c
DTITLE=Albert Cummings - No Regrets
DYEAR=2012
DGENRE=Blues
TTITLE0=Glass House
TTITLE1=500 Miles
TTITLE2=Eye To Eye
TTITLE3=Checkered Flag
TTITLE4=She's So Tired
TTITLE5=Your Day Will Come
TTITLE6=Cry Me A River
TTITLE7=Drink Party And Dance
TTITLE8=Foolin Me
TTITLE9=Where You Belong
TTITLE10=Mannish Boy
TTITLE11=Home Town
EXTD=
EXTT0=
EXTT1=
EXTT2=
EXTT3=
EXTT4=
EXTT5=
EXTT6=
EXTT7=
EXTT8=
EXTT9=
EXTT10=
EXTT11=
PLAYORDER=
